<svg width="32" height="32" viewBox="0 0 32 32" fill="none" xmlns="http://www.w3.org/2000/svg">
<path d="M5.33334 12.0001C5.33334 7.60031 5.33334 5.40041 6.89544 4.03359C8.45754 2.66675 10.9717 2.66675 16 2.66675C21.0283 2.66675 23.5425 2.66675 25.1045 4.03359C26.6667 5.40041 26.6667 7.60031 26.6667 12.0001V20.0001C26.6667 24.3998 26.6667 26.5997 25.1045 27.9666C23.5425 29.3334 21.0283 29.3334 16 29.3334C10.9717 29.3334 8.45754 29.3334 6.89544 27.9666C5.33334 26.5997 5.33334 24.3998 5.33334 20.0001V12.0001Z" stroke="#141B34" strokeWidth="1.5" stroke-linecap="round"/>
<path d="M16.8383 18.9958C16.6135 19.2123 16.3129 19.3334 16.0001 19.3334C15.6873 19.3334 15.3868 19.2123 15.162 18.9958C13.1029 17.0006 10.3434 14.7718 11.6891 11.5359C12.4167 9.78629 14.1633 8.66675 16.0001 8.66675C17.8369 8.66675 19.5835 9.78629 20.3111 11.5359C21.6551 14.7677 18.9024 17.0074 16.8383 18.9958Z" stroke="#141B34" strokeWidth="1.5"/>
<path d="M16 13.3333H16.012" stroke="#141B34" strokeWidth="2" stroke-linecap="round" stroke-linejoin="round"/>
<path d="M14.6667 25.3333H17.3333" stroke="#141B34" strokeWidth="1.5" stroke-linecap="round" stroke-linejoin="round"/>
</svg>
