<svg width="32" height="32" viewBox="0 0 32 32" fill="none" xmlns="http://www.w3.org/2000/svg">
<path d="M10.5126 12.2344C8.23605 12.8849 6.6665 14.9657 6.6665 17.3333M10.5126 12.2344C13.1399 11.4838 18.7026 11.0007 19.7688 8.00984M10.5126 12.2344C10.5126 6.66663 15.9998 7.99996 15.9998 2.66663C18.729 2.66663 20.67 5.48111 19.7688 8.00984M19.7688 8.00984C21.9385 7.82356 23.3921 10.3179 22.246 12.1046M22.246 12.1046C21.881 12.6735 21.2814 13.1367 20.6665 13.492M22.246 12.1046C24.8556 12.7137 25.3332 15.0582 25.3332 17.3333" stroke="#141B34" strokeWidth="1.5"/>
<path d="M9.3335 29.3333H22.6668L24.878 24.8786C25.6596 23.3038 26.6668 21.7481 26.6668 19.9316C26.6668 16.4672 21.3335 16.4672 21.3335 19.9316C21.3335 16.4672 16.0002 16.4672 16.0002 19.9316C16.0002 16.4672 10.6668 16.4672 10.6668 19.9316C10.6668 16.4672 5.3335 16.4672 5.3335 19.9316C5.3335 21.7481 6.3407 23.3038 7.12235 24.8786L9.3335 29.3333Z" stroke="#141B34" strokeWidth="1.5"/>
</svg>
