<svg width="32" height="32" viewBox="0 0 32 32" fill="none" xmlns="http://www.w3.org/2000/svg">
<path d="M21.3335 13.3334L24.1994 14.1931C26.0303 14.7424 26.9458 15.0171 27.473 15.7256C28.0002 16.4342 28.0002 17.39 28.0002 19.3015V29.3334" stroke="#141B34" strokeWidth="1.5" stroke-linejoin="round"/>
<path d="M10.6665 12H14.6665M10.6665 17.3333H14.6665" stroke="#141B34" strokeWidth="1.5" stroke-linecap="round" stroke-linejoin="round"/>
<path d="M16.0002 29.3333V25.3333C16.0002 24.0762 16.0002 23.4477 15.6096 23.0572C15.2191 22.6666 14.5906 22.6666 13.3335 22.6666H12.0002C10.7431 22.6666 10.1145 22.6666 9.72402 23.0572C9.3335 23.4477 9.3335 24.0762 9.3335 25.3333V29.3333" stroke="#141B34" strokeWidth="1.5" stroke-linejoin="round"/>
<path d="M2.6665 29.3334H29.3332" stroke="#141B34" strokeWidth="1.5" stroke-linecap="round"/>
<path d="M4 29.3333V8.95628C4 5.60862 4 3.93478 5.05491 3.10428C6.10983 2.27379 7.66323 2.7247 10.77 3.6265L17.4367 5.56159C19.3115 6.10579 20.2489 6.37788 20.7911 7.1195C21.3333 7.86112 21.3333 8.87122 21.3333 10.8914V29.3333" stroke="#141B34" strokeWidth="1.5" stroke-linecap="round" stroke-linejoin="round"/>
</svg>
