<svg width="156" height="147" viewBox="0 0 156 147" fill="none" xmlns="http://www.w3.org/2000/svg">
<path d="M34.6311 136.856L33.2114 135.958L40.6971 124.127L42.1168 125.026L38.5557 130.654L44.4119 134.359L47.9729 128.731L49.3926 129.629L41.907 141.46L40.4873 140.562L43.5136 135.779L37.6574 132.073L34.6311 136.856Z" fill="white"/>
<path d="M33.2517 130.425L31.9833 129.324L38.5404 121.774L39.8088 122.875L33.2517 130.425ZM31.5336 131.092C31.7349 131.267 31.8467 131.479 31.869 131.728C31.8912 131.977 31.8171 132.199 31.6466 132.396C31.4761 132.592 31.2661 132.696 31.0166 132.709C30.767 132.722 30.5441 132.643 30.3478 132.473C30.1515 132.302 30.0422 132.093 30.0199 131.844C29.9977 131.595 30.0718 131.372 30.2423 131.176C30.4128 130.98 30.6228 130.875 30.8724 130.862C31.1169 130.845 31.3373 130.922 31.5336 131.092Z" fill="white"/>
<path d="M35.2672 118.601L27.8265 125.282L26.7041 124.032L27.6342 123.197C27.0509 123.246 26.4772 123.161 25.913 122.942C25.3439 122.727 24.8478 122.384 24.4247 121.913C24.1663 121.625 23.9541 121.314 23.788 120.979L25.4924 120.363C25.6105 120.624 25.7564 120.851 25.9301 121.045C26.2642 121.417 26.6633 121.677 27.1274 121.824C27.5821 121.972 28.0457 121.999 28.518 121.906C28.9904 121.814 29.415 121.598 29.792 121.26L34.1448 117.351L35.2672 118.601Z" fill="white"/>
<path d="M27.9023 108.543C28.3986 109.318 28.6526 110.152 28.6641 111.048C28.672 111.937 28.4643 112.787 28.0409 113.597C27.6084 114.405 26.9851 115.069 26.1712 115.591C25.5538 115.986 24.9083 116.246 24.2348 116.368C23.5557 116.495 22.8917 116.497 22.243 116.374C21.5851 116.249 20.9774 116.005 20.4199 115.642C19.8624 115.279 19.3985 114.808 19.028 114.23C18.6215 113.595 18.3784 112.932 18.2984 112.239C18.2093 111.544 18.2716 110.862 18.4853 110.195C18.6953 109.522 19.0413 108.9 19.5232 108.33C20.0015 107.754 20.5993 107.272 21.3164 106.884L25.7191 113.754C26.153 113.381 26.4789 112.951 26.6967 112.463C26.9089 111.978 27.0022 111.475 26.9765 110.953C26.9472 110.426 26.7843 109.924 26.4878 109.449C26.164 108.944 25.7418 108.569 25.221 108.325C24.6946 108.084 24.1232 107.983 23.5066 108.022L22.9208 106.367C23.8832 106.225 24.8205 106.341 25.7329 106.714C26.6396 107.091 27.3627 107.701 27.9023 108.543ZM24.6347 114.509L21.1169 109.019C20.6741 109.366 20.3418 109.793 20.12 110.299C19.8925 110.809 19.7886 111.339 19.8083 111.889C19.8279 112.438 19.9888 112.949 20.2909 113.42C20.5931 113.892 20.9851 114.25 21.467 114.496C21.9489 114.741 22.4691 114.867 23.0275 114.874C23.5766 114.878 24.1124 114.756 24.6347 114.509Z" fill="white"/>
<path d="M22.141 97.435L7.9028 98.2211L7.5882 96.97L16.3062 90.8801L5.74694 89.648L5.43234 88.397L18.3463 82.3448L18.7633 84.0032L9.39051 88.3915L19.3725 89.5419L19.6432 90.6184L11.3927 96.3536L21.724 95.7766L22.141 97.435Z" fill="white"/>
<path d="M19.3409 78.4936C19.3691 79.4131 19.1583 80.26 18.7085 81.0342C18.2585 81.8017 17.644 82.4241 16.8649 82.9016C16.079 83.3726 15.2029 83.6229 14.2367 83.6526C13.5037 83.675 12.8167 83.5661 12.1757 83.3256C11.5281 83.0854 10.9574 82.746 10.4637 82.3076C9.96316 81.8628 9.56698 81.3413 9.27517 80.7433C8.98336 80.1454 8.82693 79.5032 8.80587 78.8168C8.78276 78.0639 8.91486 77.3695 9.20217 76.7337C9.4826 76.0915 9.88584 75.5388 10.4119 75.0758C10.9377 74.6061 11.5538 74.2504 12.26 74.0086C12.9661 73.7602 13.7265 73.6535 14.5413 73.6885L14.7915 81.8447C15.3555 81.7473 15.8562 81.5452 16.2937 81.2383C16.7245 80.9316 17.0628 80.5477 17.3088 80.0867C17.5546 79.6189 17.6722 79.105 17.6617 78.5451C17.6433 77.9454 17.4734 77.407 17.1519 76.93C16.8238 76.4532 16.3853 76.0731 15.8363 75.7898L16.1837 74.0683C17.0822 74.4409 17.8271 75.0217 18.4182 75.8106C19.0027 76.5997 19.3102 77.4941 19.3409 78.4936ZM13.4737 81.9351L13.2737 75.4182C12.7156 75.4887 12.2114 75.6843 11.761 76.0049C11.304 76.3257 10.9428 76.727 10.6774 77.2087C10.4121 77.6904 10.288 78.2111 10.3052 78.7708C10.3223 79.3306 10.4747 79.8395 10.7622 80.2975C11.0497 80.7556 11.4314 81.1307 11.9073 81.4229C12.3762 81.7087 12.8984 81.8794 13.4737 81.9351Z" fill="white"/>
<path d="M20.3386 65.7546L6.77281 62.2948L8.80176 54.3395L10.4296 54.7546L8.81588 61.0821L12.6724 62.0657L14.049 56.6684L15.6768 57.0836L14.3003 62.4808L20.7537 64.1267L20.3386 65.7546Z" fill="white"/>
<path d="M25.0513 52.7798C24.6742 53.619 24.1141 54.2882 23.3709 54.7875C22.6304 55.2807 21.8054 55.5715 20.896 55.6598C19.9832 55.7394 19.0859 55.5811 18.2042 55.1849C17.5352 54.8844 16.9652 54.4858 16.4941 53.989C16.0168 53.4896 15.6522 52.9348 15.4001 52.3245C15.1447 51.7055 15.0167 51.0633 15.016 50.3979C15.0153 49.7325 15.1557 49.0866 15.4371 48.4602C15.8141 47.621 16.3729 46.9549 17.1134 46.4617C17.8566 45.9624 18.6846 45.673 19.5974 45.5934C20.5129 45.5078 21.4146 45.6644 22.3025 46.0633C22.9653 46.3611 23.5323 46.7584 24.0034 47.2551C24.4746 47.7518 24.8378 48.3097 25.0932 48.9288C25.3453 49.539 25.4717 50.1768 25.4724 50.8422C25.4758 51.5015 25.3354 52.1474 25.0513 52.7798ZM23.5188 52.0913C23.7757 51.5197 23.8576 50.9389 23.7645 50.3489C23.6681 49.7502 23.4323 49.2094 23.0573 48.7266C22.6788 48.235 22.1977 47.858 21.6139 47.5958C21.018 47.328 20.4092 47.2189 19.7876 47.2685C19.1688 47.3121 18.6079 47.4949 18.105 47.8171C17.6021 48.1393 17.2236 48.5832 16.9695 49.1487C16.7127 49.7204 16.6338 50.3025 16.733 50.8952C16.826 51.4852 17.0618 52.026 17.4402 52.5176C17.8187 53.0092 18.3028 53.3875 18.8927 53.6525C19.5008 53.9257 20.1156 54.0375 20.7372 53.9879C21.3527 53.9356 21.9103 53.7439 22.4098 53.4129C22.9033 53.0791 23.2729 52.6386 23.5188 52.0913Z" fill="white"/>
<path d="M27.9499 46.9233L19.6074 41.4094L20.5337 40.0079L21.5765 40.6971C21.382 40.1451 21.3197 39.5684 21.3894 38.9672C21.4535 38.3623 21.6602 37.7957 22.0095 37.2673C22.2227 36.9448 22.4702 36.6609 22.7521 36.4157L23.7787 37.9093C23.5557 38.0896 23.3725 38.2881 23.2292 38.505C22.9535 38.9222 22.8027 39.3739 22.7769 39.8603C22.7492 40.3375 22.8398 40.7929 23.0486 41.2266C23.2574 41.6603 23.5732 42.0168 23.9958 42.2962L28.8762 45.5218L27.9499 46.9233Z" fill="white"/>
<path d="M34.2822 19.4593L35.7815 18.166L37.2021 27.0699L41.3367 31.863L40.0646 32.9603L35.93 28.1672L27.331 25.4554L28.8303 24.1621L35.3642 26.2253L34.2822 19.4593Z" fill="white"/>
<path d="M49.8563 26.563C49.0593 27.0226 48.2133 27.2372 47.3185 27.2067C46.4295 27.173 45.5904 26.9257 44.8014 26.4649C44.0149 25.995 43.3801 25.3413 42.8973 24.5039C42.531 23.8686 42.3022 23.2117 42.2111 22.5331C42.1167 21.8488 42.1459 21.1855 42.2989 20.5432C42.4543 19.8919 42.7265 19.2963 43.1155 18.7564C43.5046 18.2166 43.9965 17.7752 44.5914 17.4322C45.3884 16.9726 46.2314 16.7597 47.1204 16.7935C48.0153 16.8239 48.856 17.0741 49.6425 17.544C50.4349 18.0106 51.0741 18.6655 51.5603 19.5087C51.9233 20.1382 52.1504 20.7922 52.2415 21.4708C52.3326 22.1493 52.3005 22.8143 52.1451 23.4656C51.9921 24.1079 51.7211 24.699 51.3321 25.2388C50.9488 25.7753 50.4569 26.2167 49.8563 26.563ZM49.0171 25.1076C49.5599 24.7946 49.9664 24.3717 50.2364 23.839C50.5088 23.2971 50.6343 22.7207 50.6129 22.1097C50.5939 21.4896 50.4246 20.9023 50.1049 20.3479C49.7786 19.7819 49.3489 19.337 48.816 19.0133C48.2888 18.6863 47.727 18.5061 47.1307 18.4729C46.5344 18.4396 45.9677 18.5779 45.4305 18.8876C44.8877 19.2006 44.4829 19.6264 44.2162 20.1649C43.9463 20.6977 43.8208 21.2741 43.8397 21.8942C43.8587 22.5143 44.0296 23.1045 44.3527 23.6647C44.6857 24.2422 45.1187 24.6928 45.6516 25.0166C46.1813 25.3345 46.7455 25.5056 47.3442 25.5297C47.9397 25.548 48.4973 25.4074 49.0171 25.1076Z" fill="white"/>
<path d="M53.8543 20.0781L51.7569 14.2437L53.3379 13.6753L55.3101 19.1616C55.4815 19.6384 55.7532 20.0296 56.1251 20.3351C56.4971 20.6406 56.9192 20.8395 57.3916 20.9318C57.8681 21.0156 58.3415 20.9729 58.8121 20.8038C59.2889 20.6324 59.678 20.3649 59.9795 20.0015C60.285 19.6296 60.4839 19.2074 60.5762 18.735C60.6685 18.2626 60.629 17.788 60.4576 17.3112L58.4854 11.8249L60.0663 11.2566L63.4586 20.6636L61.8777 21.2319L61.4386 20.0402C61.264 20.5989 60.97 21.1013 60.5565 21.5475C60.1408 21.9874 59.6381 22.3133 59.0484 22.5253C58.3457 22.7779 57.6418 22.8397 56.9366 22.7106C56.2354 22.5731 55.6085 22.2777 55.056 21.8246C54.5097 21.3692 54.1091 20.7871 53.8543 20.0781Z" fill="white"/>
<path d="M65.3272 20.4832L63.4511 10.6607L65.1013 10.3455L65.3358 11.5733C65.5953 11.0487 65.9647 10.6015 66.4438 10.2317C66.9217 9.85533 67.4717 9.60775 68.0937 9.48893C68.4735 9.41639 68.8496 9.39546 69.222 9.42615L68.8692 11.2039C68.5845 11.17 68.3144 11.1775 68.0591 11.2263C67.5679 11.3201 67.1392 11.5275 66.773 11.8486C66.412 12.1619 66.1492 12.5447 65.9844 12.9969C65.8197 13.4492 65.7848 13.9242 65.8799 14.4219L66.9774 20.168L65.3272 20.4832Z" fill="white"/>
<path d="M79.6217 19.0301L80.9033 5.08885L85.5138 5.51268C86.4765 5.60116 87.3625 5.86672 88.1721 6.30935C88.9822 6.74534 89.6764 7.31461 90.2545 8.01714C90.8332 8.71304 91.2631 9.49902 91.5441 10.3751C91.8323 11.2451 91.9322 12.1614 91.8437 13.1241C91.7552 14.0867 91.4896 14.9727 91.047 15.7823C90.6116 16.5858 90.0457 17.2803 89.3492 17.8656C88.6533 18.4443 87.867 18.8775 86.9903 19.1651C86.1143 19.4461 85.1949 19.5424 84.2323 19.4539L79.6217 19.0301ZM81.4485 17.5109L84.3861 17.781C85.1163 17.8481 85.8126 17.7748 86.475 17.5612C87.1446 17.3416 87.7439 17.0118 88.2731 16.5717C88.8023 16.1316 89.2323 15.6054 89.563 14.9931C89.901 14.3748 90.1036 13.7005 90.1707 12.9703C90.2379 12.24 90.1613 11.5434 89.9411 10.8805C89.7281 10.2115 89.3982 9.61212 88.9515 9.08234C88.5114 8.55317 87.9853 8.1232 87.373 7.79243C86.7613 7.45502 86.0903 7.25275 85.3601 7.18562L82.4224 6.91558L81.4485 17.5109Z" fill="white"/>
<path d="M91.7863 20.7431L94.3978 11.0902L96.0195 11.5289L95.6931 12.7355C96.156 12.3773 96.6838 12.1368 97.2765 12.014C97.8709 11.8847 98.4737 11.9028 99.0851 12.0682C99.4583 12.1692 99.8056 12.3149 100.127 12.5055L99.0319 13.9496C98.7907 13.7946 98.5446 13.6831 98.2936 13.6152C97.811 13.4846 97.3347 13.4835 96.8649 13.612C96.4032 13.7357 95.9993 13.9648 95.6533 14.2994C95.3072 14.634 95.0681 15.0458 94.9357 15.5349L93.408 21.1819L91.7863 20.7431Z" fill="white"/>
<path d="M103.436 25.18C102.599 24.7998 101.932 24.2372 101.435 23.4921C100.945 22.7498 100.657 21.9237 100.572 21.014C100.496 20.1009 100.657 19.2042 101.057 18.324C101.36 17.6562 101.761 17.0876 102.259 16.6183C102.76 16.1429 103.316 15.7804 103.928 15.5306C104.548 15.2775 105.19 15.1518 105.856 15.1536C106.521 15.1554 107.166 15.2981 107.792 15.5819C108.478 15.8932 109.043 16.3179 109.487 16.8561C109.939 17.391 110.258 17.9966 110.441 18.6729C110.631 19.352 110.679 20.0618 110.584 20.8023C110.496 21.5455 110.256 22.2751 109.866 22.9909L102.435 19.6191C102.273 20.1682 102.234 20.7067 102.317 21.2347C102.402 21.7565 102.597 22.2295 102.903 22.6536C103.214 23.0805 103.623 23.4126 104.131 23.6501C104.677 23.898 105.235 23.9829 105.805 23.9047C106.378 23.8205 106.912 23.5945 107.409 23.2267L108.8 24.2976C108.07 24.9397 107.22 25.3521 106.251 25.5348C105.285 25.7115 104.347 25.5932 103.436 25.18ZM102.935 18.3964L108.872 21.0905C109.055 20.5586 109.102 20.0198 109.012 19.4741C108.926 18.9225 108.725 18.4213 108.41 17.9708C108.095 17.5202 107.682 17.1792 107.172 16.9478C106.662 16.7164 106.138 16.6288 105.6 16.6848C105.062 16.7409 104.557 16.9181 104.085 17.2163C103.622 17.5112 103.238 17.9046 102.935 18.3964Z" fill="white"/>
<path d="M121.502 24.3735L122.879 25.335L117.156 33.5354L115.779 32.574L116.688 31.148C116.099 31.4443 115.475 31.5817 114.815 31.5603C114.161 31.5426 113.522 31.3163 112.899 30.8814C112.298 30.4617 111.813 29.9566 111.444 29.3662C111.08 28.7703 110.835 28.1317 110.708 27.4503C110.592 26.7672 110.604 26.085 110.747 25.4038C110.889 24.7225 111.172 24.0785 111.595 23.4716C112.003 22.8867 112.498 22.4108 113.079 22.0441C113.66 21.6773 114.28 21.4353 114.939 21.3181C115.608 21.1991 116.275 21.2097 116.942 21.3496C117.612 21.4841 118.242 21.7574 118.833 22.1695C119.478 22.6197 119.937 23.1677 120.21 23.8134C120.486 24.4536 120.607 25.1192 120.572 25.8102L121.502 24.3735ZM113.807 29.5276C114.349 29.9053 114.908 30.1003 115.484 30.1126C116.07 30.1232 116.628 29.9761 117.158 29.6711C117.694 29.37 118.152 28.946 118.534 28.3993C118.923 27.8417 119.164 27.2625 119.259 26.6616C119.357 26.0552 119.298 25.4815 119.082 24.9406C118.875 24.398 118.504 23.9398 117.968 23.5659C117.427 23.1881 116.841 22.9787 116.211 22.9375C115.582 22.8964 114.977 23.0111 114.398 23.2817C113.828 23.5507 113.351 23.9612 112.965 24.5134C112.58 25.0656 112.363 25.662 112.314 26.3027C112.269 26.9379 112.375 27.544 112.631 28.121C112.89 28.6924 113.282 29.1613 113.807 29.5276Z" fill="white"/>
<path d="M117.727 34.2411L125.072 27.4555L126.212 28.6896L125.294 29.5377C125.877 29.4806 126.449 29.5552 127.012 29.7615C127.584 29.9682 128.085 30.3041 128.515 30.7693C129.017 31.3129 129.344 31.9321 129.496 32.6269C129.647 33.3217 129.625 34.0001 129.429 34.6623C130.105 34.5192 130.781 34.5484 131.457 34.7497C132.137 34.9559 132.726 35.3284 133.224 35.8671C133.735 36.4204 134.064 37.0468 134.211 37.7461C134.363 38.4409 134.336 39.1286 134.129 39.8092C133.928 40.4947 133.55 41.0931 132.997 41.6043L128.428 45.8249L127.288 44.5909L131.563 40.6417C131.925 40.3069 132.179 39.9089 132.325 39.4476C132.471 38.9863 132.499 38.5204 132.409 38.0497C132.319 37.5791 132.107 37.1626 131.772 36.8003C131.437 36.4379 131.044 36.1888 130.591 36.0529C130.144 35.9125 129.685 35.8967 129.213 36.0054C128.747 36.1095 128.318 36.3426 127.926 36.7045L123.651 40.6537L122.511 39.4196L126.786 35.4704C127.178 35.1085 127.444 34.6992 127.585 34.2425C127.73 33.7812 127.749 33.3196 127.64 32.8576C127.54 32.396 127.323 31.9841 126.988 31.6217C126.658 31.2642 126.259 31.0196 125.793 30.8879C125.331 30.7611 124.864 30.752 124.393 30.8607C123.921 30.9694 123.504 31.1912 123.142 31.5259L118.867 35.4751L117.727 34.2411Z" fill="white"/>
<path d="M129.257 49.5276C128.792 48.7338 128.571 47.8895 128.595 46.9944C128.623 46.1052 128.864 45.2644 129.319 44.4722C129.784 43.6823 130.433 43.043 131.267 42.5542C131.9 42.1834 132.555 41.9501 133.233 41.8541C133.916 41.7549 134.58 41.7794 135.223 41.9278C135.876 42.0786 136.473 42.3466 137.016 42.7318C137.558 43.117 138.003 43.6058 138.35 44.1983C138.731 44.8482 138.948 45.521 139 46.2167C139.062 46.9148 138.972 47.5931 138.732 48.2515C138.495 48.9156 138.125 49.523 137.621 50.0734C137.12 50.6297 136.504 51.0875 135.772 51.447L131.646 44.407C131.197 44.7625 130.854 45.1797 130.617 45.6587C130.386 46.1342 130.273 46.6333 130.278 47.1559C130.286 47.6842 130.429 48.1916 130.706 48.6781C131.01 49.1958 131.417 49.587 131.927 49.8518C132.444 50.1133 133.011 50.2369 133.628 50.2227L134.148 51.9002C133.181 52.0034 132.249 51.8503 131.352 51.4409C130.461 51.0281 129.763 50.3903 129.257 49.5276ZM132.759 43.6964L136.056 49.3215C136.512 48.9924 136.861 48.5792 137.103 48.082C137.35 47.5815 137.475 47.0563 137.478 46.5063C137.48 45.9564 137.339 45.4398 137.056 44.9567C136.773 44.4736 136.396 44.0998 135.924 43.8354C135.452 43.571 134.937 43.4244 134.38 43.3958C133.831 43.3696 133.291 43.4698 132.759 43.6964Z" fill="white"/>
<path d="M149.176 57.6467L149.738 59.2297L135.604 64.2516L135.041 62.6686L136.643 62.0994C135.977 61.9754 135.378 61.7036 134.847 61.2839C134.315 60.8642 133.92 60.2899 133.661 59.5612C133.418 58.8765 133.319 58.19 133.365 57.5017C133.41 56.8134 133.578 56.1596 133.867 55.5403C134.165 54.9251 134.567 54.3827 135.072 53.9131C135.577 53.4435 136.172 53.0871 136.857 52.8438C137.542 52.6005 138.228 52.5016 138.916 52.5471C139.611 52.5904 140.265 52.7579 140.878 53.0495C141.499 53.3451 142.045 53.7456 142.515 54.2509C142.984 54.7561 143.341 55.3511 143.584 56.0359C143.843 56.7646 143.899 57.4593 143.751 58.1201C143.604 58.7809 143.311 59.3696 142.872 59.8864L149.176 57.6467ZM135.204 59.0344C135.425 59.6563 135.767 60.1398 136.229 60.485C136.7 60.8342 137.239 61.0387 137.848 61.0984C138.458 61.1645 139.078 61.0859 139.706 60.8627C140.347 60.635 140.88 60.304 141.306 59.8697C141.738 59.4332 142.023 58.9321 142.162 58.3664C142.309 57.8047 142.273 57.2161 142.055 56.6004C141.834 55.9785 141.479 55.4678 140.99 55.0684C140.504 54.6752 139.946 54.4204 139.318 54.3041C138.696 54.1856 138.067 54.2391 137.433 54.4645C136.798 54.6899 136.275 55.0492 135.863 55.5423C135.457 56.0331 135.191 56.5876 135.064 57.2058C134.943 57.8218 134.99 58.4313 135.204 59.0344Z" fill="white"/>
<path d="M136.681 72.363L150.663 71.6604L150.895 76.2745C150.933 77.0269 150.784 77.7119 150.448 78.3296C150.112 78.9539 149.64 79.4582 149.032 79.8425C148.431 80.2332 147.747 80.4478 146.982 80.4863C146.202 80.5254 145.491 80.3776 144.847 80.0428C144.209 79.7144 143.692 79.2531 143.295 78.659C142.905 78.0711 142.692 77.4143 142.655 76.6886L142.508 73.7523L136.765 74.0409L136.681 72.363ZM144.186 73.668L144.326 76.4545C144.349 76.9072 144.479 77.3145 144.718 77.6763C144.963 78.0445 145.281 78.3289 145.672 78.5295C146.069 78.7365 146.508 78.8279 146.987 78.8039C147.473 78.7794 147.9 78.6445 148.268 78.399C148.644 78.1599 148.931 77.8451 149.132 77.4545C149.34 77.0703 149.432 76.6518 149.409 76.199L149.269 73.4125L144.186 73.668Z" fill="white"/>
<path d="M136.734 82.6328L146.677 83.6924L146.499 85.363L145.256 85.2305C145.683 85.6313 146.004 86.1147 146.218 86.6806C146.439 87.2472 146.516 87.8454 146.449 88.4752C146.408 88.8597 146.319 89.2256 146.181 89.573L144.583 88.7188C144.698 88.4562 144.769 88.1956 144.797 87.9371C144.85 87.4399 144.776 86.9694 144.575 86.5256C144.381 86.0892 144.091 85.7265 143.706 85.4374C143.321 85.1483 142.877 84.9769 142.373 84.9232L136.556 84.3033L136.734 82.6328Z" fill="white"/>
<path d="M134.186 94.8361C134.429 93.9489 134.88 93.2015 135.538 92.5939C136.194 91.9928 136.964 91.5787 137.849 91.3515C138.739 91.1326 139.65 91.1511 140.582 91.407C141.289 91.6011 141.914 91.9074 142.455 92.3258C143.004 92.7459 143.449 93.2381 143.792 93.8023C144.14 94.3748 144.365 94.9897 144.468 95.6471C144.571 96.3044 144.532 96.9642 144.35 97.6264C144.106 98.5136 143.657 99.2577 143.001 99.8589C142.343 100.466 141.569 100.88 140.68 101.099C139.788 101.324 138.873 101.308 137.935 101.05C137.234 100.858 136.612 100.552 136.071 100.134C135.529 99.7156 135.084 99.2202 134.736 98.6478C134.394 98.0836 134.171 97.4728 134.068 96.8154C133.963 96.1644 134.002 95.5047 134.186 94.8361ZM135.806 95.2808C135.64 95.8851 135.648 96.4716 135.831 97.0402C136.018 97.6171 136.334 98.1152 136.779 98.5346C137.229 98.9622 137.762 99.2607 138.379 99.4301C139.009 99.6031 139.628 99.6173 140.234 99.4727C140.839 99.3346 141.365 99.0676 141.812 98.672C142.26 98.2763 142.566 97.7795 142.73 97.1816C142.896 96.5773 142.884 95.99 142.695 95.4196C142.512 94.8509 142.196 94.3528 141.747 93.9252C141.297 93.4976 140.761 93.1982 140.137 93.027C139.494 92.8505 138.87 92.8346 138.263 92.9792C137.663 93.1255 137.141 93.4006 136.699 93.8045C136.262 94.2101 135.965 94.7022 135.806 95.2808Z" fill="white"/>
<path d="M128.384 97.3246L129.922 97.9997C129.735 98.427 129.662 98.8501 129.704 99.2689C129.743 99.6938 129.888 100.078 130.138 100.42C130.382 100.76 130.708 101.02 131.117 101.2L141.135 105.596L140.46 107.134L130.442 102.738C129.758 102.438 129.208 102 128.791 101.424C128.374 100.848 128.124 100.199 128.04 99.4778C127.953 98.7627 128.068 98.045 128.384 97.3246ZM142.282 107.038C142.389 106.794 142.558 106.624 142.789 106.529C143.021 106.434 143.255 106.439 143.493 106.543C143.731 106.647 143.893 106.817 143.98 107.051C144.066 107.286 144.057 107.522 143.953 107.76C143.848 107.998 143.681 108.165 143.449 108.26C143.218 108.355 142.984 108.351 142.746 108.246C142.508 108.142 142.345 107.972 142.259 107.738C142.17 107.509 142.178 107.276 142.282 107.038Z" fill="white"/>
<path d="M126.995 110.26C127.483 109.481 128.129 108.894 128.934 108.501C129.735 108.113 130.592 107.938 131.505 107.974C132.42 108.02 133.287 108.299 134.106 108.812C134.728 109.201 135.238 109.674 135.637 110.23C136.042 110.79 136.328 111.389 136.494 112.028C136.663 112.676 136.702 113.33 136.612 113.989C136.522 114.648 136.295 115.269 135.93 115.851C135.531 116.49 135.035 116.993 134.442 117.362C133.852 117.74 133.21 117.975 132.515 118.067C131.817 118.165 131.107 118.118 130.386 117.926C129.661 117.74 128.969 117.406 128.312 116.923L132.64 110.006C132.117 109.773 131.589 109.663 131.054 109.674C130.526 109.69 130.031 109.82 129.57 110.067C129.106 110.319 128.722 110.68 128.419 111.152C128.101 111.66 127.943 112.202 127.945 112.777C127.952 113.356 128.105 113.916 128.404 114.457L127.158 115.694C126.618 114.885 126.322 113.988 126.27 113.003C126.223 112.023 126.465 111.108 126.995 110.26ZM133.785 110.664L130.327 116.191C130.83 116.443 131.358 116.56 131.911 116.545C132.469 116.532 132.992 116.399 133.481 116.147C133.969 115.894 134.362 115.53 134.659 115.056C134.956 114.581 135.112 114.073 135.128 113.533C135.144 112.992 135.035 112.468 134.802 111.96C134.572 111.462 134.233 111.03 133.785 110.664Z" fill="white"/>
<path d="M120.751 122.481L119.143 123.048C118.979 122.286 118.991 121.519 119.18 120.745C119.365 119.976 119.731 119.291 120.277 118.689C120.896 118.007 121.635 117.545 122.497 117.3C123.353 117.06 124.228 117.039 125.12 117.237C126.013 117.444 126.817 117.872 127.533 118.522C128.076 119.015 128.494 119.57 128.788 120.188C129.088 120.811 129.262 121.451 129.313 122.11C129.364 122.777 129.287 123.428 129.082 124.061C128.877 124.693 128.543 125.264 128.082 125.773C127.535 126.375 126.888 126.805 126.141 127.063C125.389 127.326 124.624 127.41 123.845 127.316L124.253 125.661C124.76 125.688 125.24 125.61 125.693 125.428C126.147 125.246 126.529 124.984 126.838 124.643C127.254 124.184 127.51 123.655 127.603 123.056C127.698 122.466 127.641 121.879 127.433 121.294C127.226 120.71 126.882 120.2 126.403 119.766C125.925 119.331 125.384 119.039 124.782 118.888C124.181 118.748 123.591 118.752 123.013 118.903C122.431 119.059 121.933 119.364 121.521 119.818C121.19 120.183 120.962 120.602 120.839 121.076C120.715 121.549 120.686 122.017 120.751 122.481Z" fill="white"/>
<path d="M117.385 132.632L119.146 131.2L113.904 124.739L115.208 123.679L120.449 130.14L121.784 129.055L122.844 130.358L121.509 131.443L123.498 133.873L122.195 134.933L120.206 132.503L118.445 133.936L117.385 132.632Z" fill="white"/>
<path d="M107.407 128.846C107.88 128.584 108.383 128.398 108.915 128.287C109.446 128.185 109.957 128.169 110.45 128.237C110.941 128.315 111.367 128.486 111.729 128.751L110.816 130.025C110.613 129.883 110.349 129.793 110.023 129.756C109.697 129.719 109.357 129.737 109.004 129.81C108.651 129.883 108.326 130.008 108.029 130.187C107.715 130.377 107.451 130.603 107.235 130.865C107.02 131.127 106.883 131.404 106.825 131.696C106.765 131.997 106.816 132.281 106.978 132.549C107.15 132.835 107.381 132.999 107.672 133.042C107.96 133.094 108.277 133.078 108.624 132.994C108.968 132.919 109.314 132.834 109.662 132.741C110.34 132.535 110.972 132.395 111.558 132.322C112.148 132.254 112.674 132.299 113.135 132.457C113.593 132.624 113.974 132.959 114.277 133.462C114.597 133.993 114.729 134.54 114.672 135.104C114.609 135.671 114.401 136.205 114.049 136.705C113.697 137.206 113.247 137.621 112.699 137.951C112.008 138.368 111.288 138.6 110.538 138.647C109.788 138.695 109.12 138.548 108.534 138.209L109.282 136.835C109.503 136.982 109.76 137.073 110.053 137.106C110.349 137.146 110.653 137.134 110.965 137.07C111.277 137.007 111.569 136.897 111.84 136.741C112.178 136.553 112.464 136.322 112.696 136.049C112.923 135.78 113.065 135.492 113.122 135.186C113.176 134.889 113.115 134.594 112.94 134.303C112.768 134.018 112.545 133.856 112.273 133.817C111.995 133.783 111.68 133.809 111.328 133.897C110.974 133.993 110.586 134.092 110.163 134.191C109.543 134.338 108.943 134.44 108.361 134.495C107.779 134.55 107.253 134.497 106.783 134.337C106.307 134.18 105.927 133.86 105.644 133.377C105.327 132.852 105.207 132.298 105.284 131.715C105.363 131.137 105.593 130.594 105.971 130.086C106.344 129.581 106.823 129.167 107.407 128.846Z" fill="white"/>
<circle cx="78" cy="79" r="45" fill="url(#paint0_linear_58_54)"/>
<path d="M72.6789 68.5154V71.182H81.4655L66.0122 86.6354L67.8922 88.5154L83.3455 73.062V81.8487H86.0122V68.5154H72.6789Z" fill="black"/>
<circle cx="64.0307" cy="144.294" r="2.70552" fill="#B39F92"/>
<circle cx="77.5581" cy="144.294" r="2.70552" fill="#B39F92"/>
<circle cx="91.0859" cy="144.294" r="2.70552" fill="#B39F92"/>
<defs>
<linearGradient id="paint0_linear_58_54" x1="78" y1="34" x2="78" y2="124" gradientUnits="userSpaceOnUse">
<stop stop-color="#F2CD8C"/>
<stop offset="1" stop-color="#CC9260"/>
</linearGradient>
</defs>
</svg>
