<svg width="200" height="200" viewBox="0 0 200 200" fill="none" xmlns="http://www.w3.org/2000/svg">
<circle cx="100" cy="100" r="100" fill="#EAE6DC"/>
<path d="M53.012 168.783L51.5923 167.885L59.0779 156.054L60.4976 156.953L56.9366 162.581L62.7928 166.286L66.3538 160.658L67.7735 161.556L60.2878 173.387L58.8681 172.489L61.8945 167.706L56.0383 164L53.012 168.783Z" fill="black"/>
<path d="M50.3273 161.447L49.0589 160.345L55.616 152.795L56.8844 153.897L50.3273 161.447ZM48.6092 162.113C48.8105 162.288 48.9223 162.5 48.9445 162.749C48.9668 162.998 48.8927 163.221 48.7222 163.417C48.5517 163.613 48.3417 163.718 48.0921 163.731C47.8426 163.743 47.6196 163.665 47.4233 163.494C47.227 163.324 47.1177 163.114 47.0955 162.865C47.0732 162.616 47.1474 162.394 47.3179 162.197C47.4883 162.001 47.6984 161.896 47.9479 161.884C48.1924 161.866 48.4129 161.943 48.6092 162.113Z" fill="black"/>
<path d="M51.6542 148.989L44.2135 155.67L43.0911 154.42L44.0212 153.585C43.4379 153.634 42.8641 153.549 42.3 153.33C41.7309 153.115 41.2347 152.772 40.8116 152.301C40.5533 152.013 40.3411 151.702 40.175 151.367L41.8793 150.751C41.9974 151.012 42.1433 151.239 42.317 151.433C42.6511 151.805 43.0502 152.065 43.5143 152.212C43.9691 152.359 44.4326 152.387 44.9049 152.294C45.3773 152.202 45.802 151.986 46.179 151.647L50.5318 147.739L51.6542 148.989Z" fill="black"/>
<path d="M43.5031 138.001C43.9995 138.776 44.2534 139.611 44.265 140.506C44.2729 141.396 44.0652 142.246 43.6418 143.055C43.2092 143.863 42.586 144.528 41.7721 145.049C41.1547 145.445 40.5092 145.704 39.8357 145.827C39.1565 145.953 38.4926 145.955 37.8439 145.832C37.1859 145.708 36.5782 145.464 36.0208 145.1C35.4633 144.737 34.9993 144.266 34.6289 143.688C34.2224 143.054 33.9792 142.39 33.8993 141.697C33.8102 141.002 33.8725 140.321 34.0861 139.653C34.2962 138.98 34.6422 138.359 35.1241 137.789C35.6024 137.213 36.2001 136.731 36.9173 136.343L41.3199 143.213C41.7539 142.84 42.0797 142.409 42.2976 141.921C42.5098 141.437 42.603 140.934 42.5773 140.412C42.5481 139.884 42.3852 139.383 42.0886 138.908C41.7649 138.403 41.3426 138.028 40.8219 137.784C40.2955 137.543 39.724 137.442 39.1075 137.481L38.5217 135.825C39.484 135.684 40.4214 135.799 41.3337 136.173C42.2404 136.55 42.9636 137.159 43.5031 138.001ZM40.2355 143.967L36.7177 138.478C36.275 138.825 35.9427 139.251 35.7209 139.758C35.4934 140.268 35.3895 140.798 35.4091 141.347C35.4288 141.897 35.5897 142.407 35.8918 142.879C36.1939 143.35 36.586 143.709 37.0679 143.954C37.5498 144.2 38.07 144.326 38.6283 144.332C39.1775 144.336 39.7132 144.215 40.2355 143.967Z" fill="black"/>
<path d="M36.577 124.671L22.3388 125.457L22.0242 124.206L30.7423 118.116L20.183 116.884L19.8684 115.633L32.7823 109.581L33.1993 111.24L23.8265 115.628L33.8085 116.778L34.0792 117.855L25.8288 123.59L36.16 123.013L36.577 124.671Z" fill="black"/>
<path d="M33.3694 103.711C33.3977 104.63 33.1869 105.477 32.7371 106.251C32.2871 107.019 31.6725 107.641 30.8935 108.119C30.1075 108.59 29.2315 108.84 28.2653 108.87C27.5323 108.892 26.8453 108.783 26.2043 108.543C25.5566 108.302 24.9859 107.963 24.4922 107.525C23.9917 107.08 23.5955 106.558 23.3037 105.96C23.0119 105.362 22.8555 104.72 22.8344 104.034C22.8113 103.281 22.9434 102.587 23.2307 101.951C23.5111 101.309 23.9144 100.756 24.4404 100.293C24.9663 99.8232 25.5823 99.4675 26.2886 99.2257C26.9946 98.9772 27.755 98.8705 28.5698 98.9056L28.8201 107.062C29.384 106.964 29.8847 106.762 30.3222 106.455C30.753 106.149 31.0914 105.765 31.3373 105.304C31.5831 104.836 31.7007 104.322 31.6902 103.762C31.6718 103.162 31.5019 102.624 31.1805 102.147C30.8523 101.67 30.4138 101.29 29.8649 101.007L30.2122 99.2854C31.1108 99.658 31.8556 100.239 32.4467 101.028C33.0312 101.817 33.3388 102.711 33.3694 103.711ZM27.5022 107.152L27.3023 100.635C26.7442 100.706 26.2399 100.901 25.7896 101.222C25.3325 101.543 24.9713 101.944 24.706 102.426C24.4406 102.907 24.3165 103.428 24.3337 103.988C24.3509 104.548 24.5032 105.057 24.7907 105.515C25.0783 105.973 25.4599 106.348 25.9358 106.64C26.4048 106.926 26.9269 107.096 27.5022 107.152Z" fill="black"/>
<path d="M34.5164 88.5272L20.9506 85.0674L22.9796 77.112L24.6074 77.5272L22.9937 83.8547L26.8502 84.8383L28.2267 79.441L29.8546 79.8562L28.4781 85.2534L34.9315 86.8993L34.5164 88.5272Z" fill="black"/>
<path d="M39.6157 74.2215C39.2387 75.0607 38.6786 75.7299 37.9353 76.2292C37.1948 76.7223 36.3699 77.0131 35.4604 77.1015C34.5476 77.1811 33.6504 77.0228 32.7686 76.6266C32.0997 76.3261 31.5297 75.9274 31.0585 75.4307C30.5813 74.9312 30.2166 74.3764 29.9646 73.7662C29.7092 73.1471 29.5812 72.5049 29.5805 71.8395C29.5798 71.1741 29.7201 70.5282 30.0015 69.9019C30.3786 69.0627 30.9374 68.3965 31.6778 67.9033C32.4211 67.4041 33.2491 67.1147 34.1619 67.0351C35.0774 66.9494 35.9791 67.1061 36.8669 67.505C37.5297 67.8028 38.0967 68.2 38.5679 68.6968C39.039 69.1935 39.4023 69.7514 39.6577 70.3704C39.9097 70.9806 40.0361 71.6185 40.0368 72.2839C40.0402 72.9432 39.8999 73.5891 39.6157 74.2215ZM38.0833 73.533C38.3401 72.9613 38.422 72.3806 38.3289 71.7906C38.2325 71.1918 37.9968 70.651 37.6217 70.1682C37.2433 69.6766 36.7622 69.2997 36.1784 69.0374C35.5824 68.7696 34.9737 68.6606 34.3521 68.7102C33.7332 68.7537 33.1723 68.9366 32.6694 69.2588C32.1666 69.581 31.7881 70.0249 31.534 70.5904C31.2771 71.162 31.1983 71.7442 31.2974 72.3369C31.3905 72.9268 31.6262 73.4676 32.0047 73.9592C32.3831 74.4508 32.8673 74.8291 33.4571 75.0942C34.0652 75.3674 34.6801 75.4792 35.3017 75.4296C35.9172 75.3772 36.4747 75.1856 36.9743 74.8545C37.4677 74.5208 37.8374 74.0803 38.0833 73.533Z" fill="black"/>
<path d="M43.1947 66.9993L34.8523 61.4854L35.7786 60.0838L36.8214 60.7731C36.6269 60.221 36.5645 59.6443 36.6343 59.0431C36.6984 58.4382 36.9051 57.8716 37.2543 57.3433C37.4675 57.0207 37.7151 56.7368 37.997 56.4916L39.0236 57.9852C38.8006 58.1655 38.6174 58.3641 38.474 58.581C38.1983 58.9981 38.0476 59.4498 38.0218 59.9362C37.9941 60.4134 38.0847 60.8688 38.2935 61.3025C38.5023 61.7362 38.818 62.0927 39.2407 62.3721L44.1211 65.5977L43.1947 66.9993Z" fill="black"/>
<path d="M50.8523 37.8603L52.3516 36.567L53.7722 45.4709L57.9068 50.264L56.6347 51.3613L52.5001 46.5682L43.9011 43.8564L45.4004 42.5631L51.9343 44.6263L50.8523 37.8603Z" fill="black"/>
<path d="M67.7076 43.9424C66.9106 44.402 66.0647 44.6166 65.1699 44.5861C64.2808 44.5524 63.4418 44.3051 62.6528 43.8443C61.8662 43.3744 61.2315 42.7207 60.7486 41.8832C60.3823 41.248 60.1536 40.591 60.0625 39.9125C59.968 39.2282 59.9973 38.5649 60.1502 37.9226C60.3056 37.2713 60.5779 36.6757 60.9669 36.1358C61.3559 35.596 61.8478 35.1546 62.4427 34.8116C63.2397 34.352 64.0827 34.1391 64.9718 34.1729C65.8666 34.2033 66.7073 34.4535 67.4939 34.9234C68.2862 35.39 68.9255 36.0449 69.4117 36.8881C69.7747 37.5176 70.0017 38.1716 70.0928 38.8502C70.1839 39.5287 70.1518 40.1937 69.9964 40.845C69.8434 41.4873 69.5725 42.0784 69.1834 42.6182C68.8002 43.1547 68.3082 43.5961 67.7076 43.9424ZM66.8684 42.487C67.4113 42.174 67.8177 41.7511 68.0877 41.2184C68.3601 40.6765 68.4856 40.1001 68.4642 39.4891C68.4453 38.869 68.276 38.2817 67.9563 37.7273C67.6299 37.1613 67.2003 36.7164 66.6673 36.3927C66.1401 36.0657 65.5784 35.8855 64.982 35.8523C64.3857 35.819 63.819 35.9573 63.2819 36.267C62.739 36.58 62.3342 37.0058 62.0676 37.5443C61.7976 38.0771 61.6721 38.6535 61.6911 39.2736C61.71 39.8937 61.881 40.4839 62.204 41.0441C62.537 41.6216 62.97 42.0722 63.503 42.396C64.0326 42.7139 64.5968 42.8849 65.1956 42.9091C65.791 42.9274 66.3486 42.7868 66.8684 42.487Z" fill="black"/>
<path d="M73.0742 36.7358L70.9768 30.9014L72.5578 30.3331L74.53 35.8193C74.7014 36.2961 74.9731 36.6873 75.345 36.9928C75.717 37.2983 76.1392 37.4972 76.6116 37.5895C77.088 37.6733 77.5615 37.6306 78.032 37.4615C78.5088 37.2901 78.898 37.0227 79.1995 36.6592C79.505 36.2873 79.7039 35.8651 79.7962 35.3927C79.8885 34.9203 79.8489 34.4457 79.6775 33.9689L77.7053 28.4826L79.2863 27.9143L82.6786 37.3213L81.0976 37.8897L80.6586 36.6979C80.4839 37.2566 80.1899 37.759 79.7764 38.2052C79.3608 38.6451 78.858 38.971 78.2683 39.183C77.5657 39.4356 76.8617 39.4974 76.1565 39.3684C75.4553 39.2308 74.8284 38.9354 74.2759 38.4823C73.7296 38.0269 73.3291 37.4448 73.0742 36.7358Z" fill="black"/>
<path d="M85.9213 36.7058L84.0453 26.8834L85.6954 26.5682L85.9299 27.796C86.1894 27.2713 86.5588 26.8241 87.0379 26.4543C87.5158 26.078 88.0658 25.8304 88.6879 25.7116C89.0677 25.639 89.4437 25.6181 89.8161 25.6488L89.4634 27.4265C89.1786 27.3927 88.9086 27.4002 88.6532 27.4489C88.1621 27.5427 87.7334 27.7502 87.3671 28.0713C87.0061 28.3846 86.7433 28.7673 86.5785 29.2196C86.4138 29.6719 86.3789 30.1468 86.474 30.6445L87.5715 36.3906L85.9213 36.7058Z" fill="black"/>
<path d="M102.347 35.0301L103.629 21.0889L108.239 21.5127C109.202 21.6012 110.088 21.8667 110.897 22.3094C111.708 22.7453 112.402 23.3146 112.98 24.0171C113.559 24.713 113.988 25.499 114.269 26.3751C114.558 27.2451 114.657 28.1614 114.569 29.1241C114.481 30.0867 114.215 30.9727 113.772 31.7823C113.337 32.5858 112.771 33.2803 112.074 33.8656C111.379 34.4443 110.592 34.8775 109.716 35.1651C108.84 35.4461 107.92 35.5424 106.958 35.4539L102.347 35.0301ZM104.174 33.5109L107.111 33.781C107.842 33.8481 108.538 33.7748 109.2 33.5612C109.87 33.3416 110.469 33.0118 110.998 32.5717C111.528 32.1316 111.958 31.6054 112.288 30.9931C112.626 30.3748 112.829 29.7005 112.896 28.9703C112.963 28.24 112.887 27.5434 112.666 26.8805C112.453 26.2115 112.124 25.6121 111.677 25.0823C111.237 24.5532 110.711 24.1232 110.098 23.7924C109.487 23.455 108.816 23.2528 108.085 23.1856L105.148 22.9156L104.174 33.5109Z" fill="black"/>
<path d="M116.191 36.9704L118.802 27.3175L120.424 27.7562L120.097 28.9628C120.56 28.6046 121.088 28.3641 121.681 28.2413C122.275 28.112 122.878 28.1301 123.489 28.2955C123.863 28.3965 124.21 28.5422 124.531 28.7328L123.436 30.1769C123.195 30.0219 122.949 29.9104 122.698 29.8425C122.215 29.7119 121.739 29.7108 121.269 29.8393C120.808 29.963 120.404 30.1921 120.058 30.5267C119.712 30.8613 119.472 31.2731 119.34 31.7622L117.812 37.4092L116.191 36.9704Z" fill="black"/>
<path d="M129.006 41.7595C128.168 41.3794 127.501 40.8168 127.005 40.0717C126.514 39.3294 126.227 38.5033 126.142 37.5936C126.065 36.6805 126.227 35.7838 126.626 34.9035C126.93 34.2357 127.33 33.6672 127.829 33.1979C128.33 32.7225 128.886 32.36 129.497 32.1102C130.117 31.8571 130.76 31.7314 131.425 31.7332C132.091 31.735 132.736 31.8777 133.361 32.1615C134.047 32.4728 134.612 32.8975 135.056 33.4357C135.509 33.9706 135.827 34.5762 136.011 35.2525C136.201 35.9316 136.248 36.6414 136.154 37.3819C136.066 38.1251 135.826 38.8547 135.435 39.5705L128.004 36.1987C127.843 36.7478 127.804 37.2863 127.886 37.8142C127.972 38.3361 128.167 38.8091 128.472 39.2332C128.784 39.6601 129.193 39.9922 129.7 40.2297C130.247 40.4776 130.805 40.5625 131.375 40.4843C131.947 40.4001 132.482 40.1741 132.978 39.8063L134.37 40.8772C133.64 41.5193 132.79 41.9317 131.821 42.1144C130.855 42.2911 129.917 42.1728 129.006 41.7595ZM128.504 34.976L134.442 37.6701C134.625 37.1381 134.671 36.5993 134.582 36.0537C134.496 35.5021 134.295 35.0009 133.98 34.5504C133.664 34.0998 133.252 33.7588 132.742 33.5274C132.232 33.296 131.708 33.2084 131.17 33.2644C130.632 33.3205 130.127 33.4977 129.655 33.7959C129.192 34.0908 128.808 34.4842 128.504 34.976Z" fill="black"/>
<path d="M148.462 41.6475L149.84 42.6089L144.117 50.8094L142.739 49.8479L143.649 48.4219C143.06 48.7182 142.435 48.8557 141.776 48.8342C141.121 48.8166 140.483 48.5903 139.859 48.1553C139.258 47.7356 138.773 47.2306 138.405 46.6401C138.04 46.0443 137.795 45.4056 137.669 44.7242C137.552 44.0411 137.565 43.3589 137.707 42.6777C137.849 41.9964 138.132 41.3524 138.555 40.7456C138.964 40.1606 139.458 39.6847 140.039 39.318C140.621 38.9513 141.241 38.7092 141.9 38.592C142.568 38.4731 143.235 38.4836 143.902 38.6236C144.572 38.7581 145.203 39.0313 145.793 39.4434C146.438 39.8936 146.897 40.4416 147.17 41.0873C147.447 41.7275 147.568 42.3931 147.533 43.0841L148.462 41.6475ZM140.768 46.8015C141.309 47.1792 141.868 47.3742 142.445 47.3865C143.031 47.3971 143.589 47.25 144.118 46.945C144.654 46.6439 145.112 46.22 145.494 45.6733C145.883 45.1156 146.125 44.5364 146.219 43.9355C146.317 43.3291 146.258 42.7555 146.042 42.2145C145.835 41.6719 145.464 41.2137 144.928 40.8398C144.387 40.4621 143.802 40.2526 143.172 40.2115C142.542 40.1703 141.938 40.285 141.358 40.5556C140.789 40.8246 140.311 41.2352 139.926 41.7873C139.54 42.3395 139.323 42.9359 139.275 43.5766C139.23 44.2119 139.335 44.818 139.591 45.3949C139.851 45.9663 140.243 46.4352 140.768 46.8015Z" fill="black"/>
<path d="M145.972 52.4685L153.317 45.6829L154.457 46.917L153.539 47.7652C154.121 47.708 154.694 47.7826 155.257 47.9889C155.829 48.1956 156.33 48.5315 156.759 48.9967C157.262 49.5403 157.588 50.1595 157.74 50.8543C157.892 51.5491 157.87 52.2276 157.674 52.8897C158.349 52.7466 159.025 52.7758 159.701 52.9771C160.382 53.1834 160.971 53.5558 161.469 54.0945C161.98 54.6478 162.309 55.2742 162.456 55.9735C162.607 56.6683 162.58 57.356 162.374 58.0366C162.172 58.7222 161.795 59.3205 161.241 59.8317L156.672 64.0523L155.532 62.8183L159.807 58.8691C160.17 58.5343 160.424 58.1363 160.57 57.675C160.715 57.2137 160.743 56.7478 160.653 56.2772C160.563 55.8065 160.351 55.39 160.016 55.0277C159.682 54.6653 159.288 54.4162 158.836 54.2803C158.388 54.1399 157.929 54.1241 157.458 54.2328C156.991 54.337 156.562 54.57 156.17 54.9319L151.895 58.8811L150.755 57.6471L155.03 53.6979C155.422 53.336 155.688 52.9266 155.829 52.4699C155.975 52.0086 155.993 51.547 155.884 51.085C155.784 50.6235 155.567 50.2115 155.232 49.8491C154.902 49.4916 154.504 49.247 154.037 49.1153C153.575 48.9885 153.109 48.9794 152.637 49.0882C152.166 49.1969 151.749 49.4186 151.387 49.7533L147.112 53.7025L145.972 52.4685Z" fill="black"/>
<path d="M158.826 69.3326C158.361 68.5389 158.14 67.6945 158.164 66.7995C158.192 65.9102 158.433 65.0695 158.889 64.2772C159.353 63.4874 160.002 62.848 160.836 62.3593C161.469 61.9885 162.124 61.7551 162.802 61.6592C163.485 61.5599 164.149 61.5845 164.792 61.7329C165.445 61.8837 166.042 62.1517 166.585 62.5369C167.127 62.9221 167.572 63.4109 167.92 64.0033C168.3 64.6532 168.517 65.3261 168.569 66.0218C168.631 66.7199 168.541 67.3981 168.301 68.0565C168.065 68.7207 167.694 69.328 167.19 69.8785C166.689 70.4347 166.073 70.8926 165.341 71.2521L161.215 64.212C160.766 64.5676 160.424 64.9848 160.187 65.4637C159.955 65.9393 159.842 66.4383 159.847 66.9609C159.855 67.4892 159.998 67.9967 160.276 68.4832C160.579 69.0008 160.986 69.3921 161.497 69.6569C162.013 69.9183 162.58 70.0419 163.198 70.0277L163.717 71.7053C162.75 71.8085 161.818 71.6554 160.921 71.246C160.03 70.8332 159.332 70.1954 158.826 69.3326ZM162.328 63.5015L165.625 69.1266C166.081 68.7974 166.43 68.3843 166.672 67.8871C166.92 67.3866 167.045 66.8613 167.047 66.3114C167.049 65.7614 166.909 65.2449 166.625 64.7617C166.342 64.2786 165.965 63.9048 165.493 63.6404C165.021 63.376 164.506 63.2295 163.949 63.2009C163.4 63.1746 162.86 63.2748 162.328 63.5015Z" fill="black"/>
<path d="M179.486 78.8267L180.048 80.4098L165.914 85.4317L165.351 83.8486L166.953 83.2795C166.287 83.1555 165.688 82.8837 165.157 82.4639C164.625 82.0442 164.23 81.47 163.971 80.7413C163.728 80.0566 163.629 79.37 163.675 78.6817C163.72 77.9935 163.888 77.3397 164.177 76.7204C164.475 76.1052 164.877 75.5627 165.382 75.0931C165.887 74.6235 166.482 74.2671 167.167 74.0238C167.852 73.7805 168.538 73.6817 169.226 73.7272C169.921 73.7705 170.575 73.9379 171.188 74.2295C171.809 74.5252 172.355 74.9256 172.824 75.4309C173.294 75.9362 173.65 76.5312 173.894 77.2159C174.153 77.9446 174.208 78.6394 174.061 79.3001C173.914 79.9609 173.621 80.5497 173.182 81.0665L179.486 78.8267ZM165.514 80.2144C165.735 80.8363 166.077 81.3199 166.539 81.665C167.01 82.0143 167.549 82.2187 168.158 82.2785C168.768 82.3445 169.388 82.2659 170.016 82.0427C170.657 81.8151 171.19 81.4841 171.616 81.0498C172.048 80.6133 172.333 80.1121 172.472 79.5464C172.619 78.9848 172.583 78.3961 172.365 77.7805C172.144 77.1586 171.789 76.6479 171.3 76.2484C170.814 75.8552 170.256 75.6005 169.628 75.4842C169.006 75.3657 168.377 75.4191 167.743 75.6446C167.108 75.87 166.585 76.2292 166.173 76.7223C165.767 77.2131 165.501 77.7677 165.374 78.3859C165.253 79.0018 165.3 79.6114 165.514 80.2144Z" fill="black"/>
<path d="M167.617 96.0049L181.599 95.3023L181.831 99.9165C181.869 100.669 181.719 101.354 181.383 101.972C181.048 102.596 180.576 103.1 179.968 103.485C179.366 103.875 178.683 104.09 177.917 104.128C177.138 104.167 176.427 104.02 175.782 103.685C175.145 103.356 174.628 102.895 174.231 102.301C173.841 101.713 173.628 101.056 173.591 100.331L173.444 97.3943L167.701 97.6828L167.617 96.0049ZM175.122 97.3099L175.262 100.096C175.284 100.549 175.415 100.956 175.653 101.318C175.899 101.686 176.217 101.971 176.607 102.171C177.005 102.378 177.443 102.47 177.923 102.446C178.409 102.421 178.836 102.286 179.204 102.041C179.579 101.802 179.867 101.487 180.068 101.096C180.275 100.712 180.368 100.294 180.345 99.841L180.205 97.0545L175.122 97.3099Z" fill="black"/>
<path d="M167.687 107.716L177.63 108.776L177.452 110.446L176.209 110.314C176.636 110.715 176.957 111.198 177.171 111.764C177.392 112.331 177.469 112.929 177.402 113.559C177.361 113.943 177.272 114.309 177.134 114.656L175.536 113.802C175.651 113.54 175.722 113.279 175.75 113.02C175.803 112.523 175.729 112.053 175.528 111.609C175.333 111.173 175.044 110.81 174.659 110.521C174.274 110.232 173.83 110.06 173.326 110.007L167.509 109.387L167.687 107.716Z" fill="black"/>
<path d="M164.975 121.125C165.218 120.238 165.669 119.491 166.326 118.883C166.982 118.282 167.753 117.868 168.638 117.641C169.527 117.422 170.438 117.44 171.371 117.696C172.078 117.891 172.702 118.197 173.244 118.615C173.792 119.035 174.238 119.528 174.581 120.092C174.928 120.664 175.154 121.279 175.257 121.936C175.36 122.594 175.32 123.254 175.138 123.916C174.895 124.803 174.445 125.547 173.789 126.148C173.132 126.756 172.358 127.169 171.468 127.388C170.577 127.613 169.662 127.597 168.723 127.34C168.022 127.147 167.401 126.842 166.859 126.423C166.317 126.005 165.873 125.51 165.525 124.937C165.182 124.373 164.959 123.762 164.856 123.105C164.752 122.454 164.791 121.794 164.975 121.125ZM166.595 121.57C166.429 122.175 166.437 122.761 166.62 123.33C166.807 123.907 167.123 124.405 167.568 124.824C168.017 125.252 168.551 125.55 169.168 125.72C169.798 125.893 170.416 125.907 171.023 125.762C171.628 125.624 172.154 125.357 172.601 124.961C173.049 124.566 173.354 124.069 173.518 123.471C173.684 122.867 173.673 122.279 173.484 121.709C173.301 121.14 172.985 120.642 172.535 120.215C172.086 119.787 171.549 119.488 170.926 119.316C170.283 119.14 169.658 119.124 169.052 119.269C168.451 119.415 167.93 119.69 167.487 120.094C167.051 120.5 166.753 120.992 166.595 121.57Z" fill="black"/>
<path d="M158.715 125.047L160.253 125.722C160.066 126.15 159.993 126.573 160.035 126.992C160.074 127.416 160.219 127.8 160.469 128.143C160.713 128.483 161.039 128.743 161.448 128.922L171.466 133.318L170.791 134.857L160.773 130.461C160.089 130.161 159.539 129.722 159.122 129.146C158.705 128.57 158.455 127.922 158.371 127.2C158.284 126.485 158.399 125.768 158.715 125.047ZM172.613 134.761C172.72 134.517 172.889 134.347 173.121 134.252C173.352 134.157 173.586 134.161 173.824 134.266C174.062 134.37 174.225 134.54 174.311 134.774C174.397 135.009 174.388 135.245 174.284 135.483C174.179 135.721 174.012 135.888 173.781 135.983C173.549 136.078 173.315 136.073 173.077 135.969C172.839 135.864 172.677 135.695 172.59 135.46C172.501 135.232 172.509 134.999 172.613 134.761Z" fill="black"/>
<path d="M156.919 138.857C157.407 138.077 158.053 137.49 158.857 137.097C159.658 136.71 160.515 136.534 161.428 136.571C162.343 136.616 163.21 136.896 164.03 137.408C164.651 137.797 165.162 138.27 165.561 138.826C165.965 139.386 166.251 139.986 166.417 140.625C166.586 141.273 166.625 141.926 166.535 142.586C166.445 143.245 166.218 143.866 165.854 144.448C165.454 145.086 164.958 145.59 164.366 145.958C163.775 146.336 163.133 146.571 162.438 146.663C161.74 146.761 161.03 146.714 160.309 146.522C159.584 146.336 158.893 146.002 158.235 145.52L162.563 138.602C162.04 138.369 161.512 138.259 160.978 138.271C160.449 138.286 159.954 138.417 159.493 138.663C159.029 138.915 158.645 139.277 158.343 139.748C158.024 140.257 157.866 140.799 157.868 141.374C157.876 141.953 158.029 142.512 158.327 143.053L157.081 144.291C156.542 143.481 156.246 142.584 156.193 141.6C156.146 140.619 156.388 139.705 156.919 138.857ZM163.709 139.26L160.25 144.787C160.753 145.039 161.281 145.157 161.834 145.141C162.392 145.129 162.915 144.996 163.404 144.743C163.892 144.49 164.285 144.127 164.582 143.652C164.879 143.177 165.035 142.67 165.051 142.129C165.067 141.588 164.959 141.064 164.726 140.557C164.495 140.059 164.156 139.626 163.709 139.26Z" fill="black"/>
<path d="M149.804 152.358L148.196 152.924C148.032 152.163 148.044 151.395 148.234 150.621C148.418 149.852 148.784 149.167 149.33 148.565C149.949 147.884 150.689 147.421 151.55 147.176C152.407 146.936 153.281 146.915 154.173 147.113C155.066 147.32 155.87 147.748 156.586 148.398C157.129 148.891 157.547 149.446 157.842 150.064C158.141 150.687 158.316 151.327 158.366 151.986C158.418 152.653 158.34 153.304 158.135 153.937C157.93 154.57 157.596 155.14 157.135 155.649C156.588 156.251 155.941 156.681 155.194 156.939C154.442 157.202 153.677 157.286 152.898 157.192L153.307 155.537C153.813 155.564 154.293 155.487 154.747 155.304C155.2 155.122 155.582 154.86 155.891 154.52C156.308 154.061 156.563 153.531 156.657 152.932C156.751 152.342 156.694 151.755 156.486 151.171C156.279 150.586 155.935 150.076 155.457 149.642C154.978 149.207 154.437 148.915 153.835 148.764C153.234 148.624 152.644 148.629 152.066 148.779C151.484 148.935 150.987 149.24 150.574 149.694C150.243 150.059 150.015 150.478 149.892 150.952C149.769 151.425 149.739 151.893 149.804 152.358Z" fill="black"/>
<path d="M145.434 163.532L147.195 162.1L141.953 155.638L143.257 154.579L148.499 161.04L149.833 159.954L150.893 161.258L149.559 162.343L151.547 164.773L150.244 165.833L148.255 163.403L146.494 164.835L145.434 163.532Z" fill="black"/>
<path d="M134.573 160.42C135.046 160.158 135.548 159.972 136.081 159.861C136.611 159.759 137.123 159.743 137.616 159.811C138.106 159.889 138.533 160.06 138.894 160.325L137.981 161.599C137.779 161.457 137.514 161.367 137.188 161.33C136.862 161.293 136.523 161.311 136.17 161.384C135.817 161.456 135.492 161.582 135.195 161.761C134.881 161.951 134.616 162.177 134.401 162.439C134.185 162.701 134.048 162.978 133.991 163.27C133.931 163.571 133.982 163.855 134.143 164.123C134.316 164.409 134.547 164.573 134.837 164.616C135.126 164.668 135.443 164.652 135.789 164.568C136.133 164.492 136.479 164.408 136.828 164.315C137.505 164.109 138.137 163.969 138.724 163.896C139.314 163.828 139.839 163.873 140.3 164.031C140.759 164.198 141.14 164.533 141.443 165.036C141.763 165.567 141.894 166.114 141.837 166.678C141.774 167.245 141.567 167.779 141.215 168.279C140.863 168.779 140.412 169.195 139.864 169.525C139.173 169.942 138.453 170.174 137.703 170.221C136.953 170.269 136.285 170.122 135.699 169.783L136.447 168.409C136.668 168.556 136.925 168.647 137.218 168.68C137.514 168.72 137.818 168.708 138.13 168.644C138.442 168.581 138.734 168.471 139.006 168.315C139.344 168.126 139.629 167.896 139.862 167.623C140.089 167.354 140.231 167.066 140.287 166.76C140.341 166.463 140.281 166.168 140.105 165.877C139.933 165.592 139.711 165.43 139.439 165.391C139.161 165.357 138.846 165.383 138.494 165.471C138.14 165.567 137.751 165.665 137.328 165.765C136.709 165.912 136.108 166.014 135.527 166.069C134.945 166.124 134.419 166.071 133.948 165.911C133.472 165.754 133.093 165.434 132.809 164.951C132.493 164.426 132.372 163.872 132.449 163.288C132.529 162.711 132.758 162.168 133.137 161.659C133.509 161.154 133.988 160.741 134.573 160.42Z" fill="black"/>
<path d="M95 88.3334V91.6667H105.983L86.6667 110.983L89.0167 113.333L108.333 94.0167V105H111.667V88.3334H95Z" fill="black"/>
<circle cx="85.0001" cy="176" r="3" fill="#B39F92"/>
<circle cx="100" cy="176" r="3" fill="#B39F92"/>
<circle cx="115" cy="176" r="3" fill="#B39F92"/>
</svg>
