<svg width="60" height="60" viewBox="0 0 60 60" fill="none" xmlns="http://www.w3.org/2000/svg">
<path d="M30 0L31.7079 18.669L38.8427 1.33282L34.9719 19.6758L46.8996 5.21284L37.7941 21.6L53.4549 11.2953L39.9238 24.2705L57.9262 19.0398L41.1717 27.4501L59.9161 27.7581L41.4269 30.8563L59.2478 36.6756L40.6669 34.1864L55.9808 45L38.959 37.1446L50.4052 51.9916L36.4551 39.4679L43.0165 57.0291L33.3776 40.9499L34.4713 59.6649L30 41.459L25.5287 59.6649L26.6224 40.9499L16.9835 57.0291L23.5449 39.4679L9.59482 51.9916L21.041 37.1446L4.01924 45L19.3331 34.1864L0.752163 36.6756L18.5731 30.8563L0.0838852 27.7581L18.8283 27.4501L2.07379 19.0398L20.0762 24.2705L6.54506 11.2953L22.2059 21.6L13.1004 5.21284L25.0281 19.6758L21.1573 1.33282L28.2921 18.669L30 0Z" fill="url(#paint0_linear_64_871)"/>
<defs>
<linearGradient id="paint0_linear_64_871" x1="56.087" y1="30" x2="2.86957" y2="30" gradientUnits="userSpaceOnUse">
<stop stop-color="#F2CD8C"/>
<stop offset="1" stop-color="#CC9260"/>
</linearGradient>
</defs>
</svg>
