<svg width="45" height="46" viewBox="0 0 45 46" fill="none" xmlns="http://www.w3.org/2000/svg">
<g clip-path="url(#clip0_36_3450)">
<path d="M32.3182 27.8568L38.8787 34.4279C39.5895 35.1399 39.9834 36.0922 39.9834 37.099C39.9834 38.1057 39.5895 39.0581 38.8787 39.77C38.1678 40.482 37.217 40.8766 36.2119 40.8766C35.2068 40.8766 34.256 40.482 33.5451 39.77L26.9846 33.199C26.2738 32.487 25.8799 31.5347 25.8799 30.5279C25.8799 29.5166 26.2738 28.5688 26.9846 27.8568C28.4516 26.383 30.8467 26.383 32.3182 27.8568Z" fill="#EAE6DC"/>
<path d="M15.3487 19.9797C14.3435 19.9797 13.3973 19.5852 12.6819 18.8732L6.12137 12.3066C4.64989 10.8328 4.64989 8.43836 6.12137 6.96451C7.59284 5.49067 9.98343 5.49067 11.4549 6.96451L18.0154 13.5356C18.7263 14.2476 19.1202 15.1999 19.1202 16.2067C19.1202 17.2134 18.7263 18.1657 18.0154 18.8777C17.3001 19.5897 16.3538 19.9797 15.3487 19.9797Z" fill="#EAE6DC"/>
<path d="M32.2684 24.5237C30.566 24.5237 29.0673 23.3719 28.6282 21.7257C28.3656 20.7507 28.5014 19.7349 29.004 18.8596C29.5065 17.9844 30.3215 17.3586 31.2949 17.1001L40.2551 14.6966C41.2285 14.4336 42.2427 14.5696 43.1165 15.073C43.9904 15.5764 44.6152 16.3927 44.8733 17.3677C45.412 19.3766 44.2167 21.4536 42.2065 21.9933L33.2463 24.3968C32.9249 24.4784 32.5944 24.5237 32.2684 24.5237Z" fill="#EAE6DC"/>
<path d="M2.79355 24.7412L11.7537 22.3377C12.7271 22.0747 13.7413 22.2107 14.6152 22.7141C15.489 23.2175 16.1093 24.0338 16.3719 25.0088C16.9107 27.0177 15.7154 29.0947 13.7051 29.6344L4.74495 32.0379C4.42802 32.124 4.0975 32.1649 3.76698 32.1649C2.0646 32.1649 0.565957 31.013 0.126778 29.3623C-0.407481 27.3579 0.787811 25.2809 2.79355 24.7412Z" fill="#EAE6DC"/>
<path d="M21.8503 15.472C21.3477 14.5967 21.2119 13.5809 21.4745 12.6059L23.8741 3.63134C24.1367 2.65633 24.757 1.84005 25.6308 1.33668C26.5047 0.833301 27.5188 0.697254 28.4923 0.960278C29.4657 1.2233 30.2807 1.84459 30.7833 2.71982C31.2858 3.59506 31.4216 4.61088 31.159 5.58588L28.7594 14.5605C28.3202 16.2066 26.8216 17.3585 25.1192 17.3585C24.7887 17.3585 24.4582 17.3131 24.1412 17.2315C23.1678 16.9685 22.3528 16.3427 21.8503 15.472Z" fill="#EAE6DC"/>
<path d="M16.2405 32.1741C16.5031 31.1991 17.1234 30.3828 17.9973 29.8794C18.8711 29.376 19.8853 29.24 20.8587 29.503C22.869 30.0427 24.0643 32.1196 23.5255 34.1286L21.1258 43.1032C20.6867 44.7539 19.188 45.9012 17.4856 45.9012C17.1597 45.9012 16.8291 45.8559 16.5077 45.7697C14.5019 45.2301 13.3021 43.1531 13.8409 41.1441L16.2405 32.1741Z" fill="#EAE6DC"/>
</g>
<defs>
<clipPath id="clip0_36_3450">
<rect width="45" height="45.0724" fill="white" transform="translate(0 0.828857)"/>
</clipPath>
</defs>
</svg>
