<svg width="98" height="40" viewBox="0 0 98 40" fill="none" xmlns="http://www.w3.org/2000/svg">
<g clip-path="url(#clip0_36_3440)">
<path d="M95.694 5.09298C94.033 5.09298 93.1915 6.17166 91.7271 8.23632C90.2045 10.3824 88.1172 13.3235 84.0174 13.3235C79.9176 13.3235 77.8303 10.3824 76.3077 8.23632C74.8433 6.17166 74.0017 5.09298 72.3435 5.09298C70.6826 5.09298 69.8438 6.17166 68.3794 8.23632C66.8568 10.3824 64.7695 13.3235 60.6725 13.3235C56.5726 13.3235 54.4881 10.3824 52.9628 8.23351C51.4984 6.16885 50.6568 5.09298 48.9986 5.09298C47.3404 5.09298 46.4989 6.17166 45.0344 8.23351C43.5119 10.3796 41.4274 13.3207 37.3275 13.3207C33.2277 13.3207 31.1432 10.3796 29.6179 8.23351C28.1534 6.16885 27.3119 5.09298 25.6537 5.09298C23.9927 5.09298 23.1539 6.17166 21.6895 8.23632C20.1669 10.3824 18.0797 13.3235 13.9826 13.3235C9.88277 13.3235 7.79825 10.3824 6.2757 8.23632C4.81128 6.17166 3.96972 5.09579 2.31152 5.09579C1.03534 5.09298 0 4.04239 0 2.75303C0 1.46367 1.03534 0.413086 2.30598 0.413086C6.40581 0.413086 8.49032 3.35417 10.0129 5.50029C11.4773 7.56495 12.3189 8.64363 13.9798 8.64363C15.6408 8.64363 16.4796 7.56495 17.944 5.50029C19.4666 3.35417 21.5511 0.413086 25.6509 0.413086C29.7507 0.413086 31.8353 3.35417 33.3606 5.50029C34.825 7.56495 35.6666 8.64082 37.3248 8.64082C38.983 8.64082 39.8245 7.56495 41.2889 5.50029C42.8115 3.35417 44.8988 0.413086 48.9986 0.413086C53.0984 0.413086 55.183 3.35417 56.7083 5.50029C58.1727 7.56495 59.0143 8.64082 60.6725 8.64082C62.3307 8.64082 63.1722 7.56214 64.6366 5.49748C66.1592 3.35417 68.2437 0.413086 72.3435 0.413086C76.4434 0.413086 78.5307 3.35417 80.0532 5.50029C81.5176 7.56495 82.3592 8.64363 84.0174 8.64363C85.6784 8.64363 86.5199 7.56495 87.9816 5.50029C89.5069 3.35417 91.5942 0.413086 95.694 0.413086C96.9647 0.413086 98 1.46367 98 2.75303C98 4.04239 96.9647 5.09298 95.694 5.09298Z" fill="#EAE6DC"/>
<path d="M2.30598 13.4891C6.40581 13.4891 8.49033 16.4302 10.0129 18.5763C11.4773 20.641 12.3189 21.7169 13.9771 21.7169C15.6353 21.7169 16.4768 20.6382 17.9412 18.5763C19.4638 16.4302 21.5511 13.4891 25.6509 13.4891C29.7507 13.4891 31.8353 16.4302 33.3606 18.5763C34.825 20.641 35.6666 21.7169 37.3248 21.7169C38.983 21.7169 39.8245 20.641 41.289 18.5763C42.8115 16.4302 44.896 13.4891 48.9959 13.4891C53.0957 13.4891 55.1802 16.4302 56.7055 18.5763C58.1699 20.641 59.0115 21.7169 60.6697 21.7169C62.3279 21.7169 63.1695 20.6382 64.6339 18.5735C66.1564 16.4274 68.2437 13.4863 72.3436 13.4863C76.4434 13.4863 78.5307 16.4274 80.0532 18.5735C81.5176 20.6382 82.3592 21.7169 84.0174 21.7169C85.6784 21.7169 86.5199 20.6382 87.9816 18.5763C89.5042 16.4302 91.5914 13.4891 95.6913 13.4891C96.9619 13.4891 97.9972 14.5397 97.9972 15.8291C97.9972 17.1184 96.9619 18.169 95.6913 18.169C94.0303 18.169 93.1887 19.2449 91.7243 21.3096C90.2018 23.4557 88.1145 26.3968 84.0146 26.3968C79.9148 26.3968 77.8275 23.4557 76.305 21.3096C74.8406 19.2449 73.999 18.169 72.3408 18.169C70.6798 18.169 69.8383 19.2449 68.3766 21.3124C66.854 23.4585 64.7668 26.3996 60.6697 26.3996C56.5699 26.3996 54.4854 23.4585 52.96 21.3124C51.4956 19.2477 50.6541 18.1718 48.9959 18.1718C47.3349 18.1718 46.4961 19.2477 45.0317 21.3124C43.5091 23.4585 41.4246 26.3996 37.3248 26.3996C33.2249 26.3996 31.1404 23.4585 29.6179 21.3124C28.1534 19.2477 27.3119 18.1718 25.6537 18.1718C23.9927 18.1718 23.1512 19.2477 21.6895 21.3152C20.1669 23.4613 18.0797 26.4024 13.9826 26.4024C9.88277 26.4024 7.79826 23.4613 6.2757 21.3152C4.81128 19.2505 3.96972 18.1746 2.31152 18.1746C1.03534 18.169 0 17.1212 0 15.8291C0 14.5397 1.03534 13.4891 2.30598 13.4891Z" fill="#EAE6DC"/>
<path d="M2.30566 26.5684C6.40549 26.5684 8.49 29.5094 10.0126 31.6556C11.477 33.7202 12.3185 34.7961 13.9767 34.7961C15.6349 34.7961 16.4765 33.7174 17.9409 31.6528C19.4635 29.5066 21.5508 26.5656 25.6506 26.5656C29.7504 26.5656 31.8349 29.5066 33.3603 31.6528C34.8247 33.7174 35.6662 34.7933 37.3244 34.7933C38.9854 34.7933 39.8242 33.7146 41.2886 31.6528C42.8112 29.5066 44.8957 26.5656 48.9955 26.5656C53.0954 26.5656 55.1799 29.5066 56.7024 31.6528C58.1669 33.7174 59.0084 34.7933 60.6666 34.7933C62.3248 34.7933 63.1664 33.7146 64.6308 31.6528C66.1534 29.5066 68.2379 26.5656 72.3405 26.5656C76.4403 26.5656 78.5276 29.5066 80.0501 31.6528C81.5146 33.7174 82.3561 34.7933 84.0143 34.7933C85.6753 34.7933 86.5168 33.7146 87.9785 31.6499C89.5011 29.5038 91.5883 26.5627 95.6882 26.5627C96.9588 26.5627 97.9941 27.6133 97.9941 28.9027C97.9941 30.192 96.9588 31.2426 95.6882 31.2426C94.0272 31.2426 93.1856 32.3213 91.7212 34.386C90.1987 36.5321 88.1141 39.4732 84.0116 39.4732C79.9117 39.4732 77.8244 36.5321 76.3019 34.386C74.8375 32.3213 73.9959 31.2426 72.3377 31.2426C70.6767 31.2426 69.8379 32.3213 68.3735 34.386C66.851 36.5321 64.7664 39.4732 60.6666 39.4732C56.5668 39.4732 54.4823 36.5321 52.9569 34.386C51.4925 32.3213 50.651 31.2454 48.9928 31.2454C47.3318 31.2454 46.493 32.3241 45.0286 34.3888C43.506 36.5349 41.4215 39.476 37.3217 39.476C33.2219 39.476 31.1373 36.5349 29.6148 34.3888C28.1504 32.3241 27.3088 31.2483 25.6506 31.2483C23.9896 31.2483 23.1508 32.3269 21.6864 34.3916C20.1639 36.5377 18.0793 39.4788 13.9795 39.4788C9.87968 39.4788 7.79517 36.5377 6.27261 34.3916C4.80819 32.3269 3.96663 31.2483 2.30843 31.2483C1.03778 31.2483 0.00244694 30.1977 0.00244694 28.9083C-0.000321339 27.6161 1.03502 26.5684 2.30566 26.5684Z" fill="#EAE6DC"/>
</g>
<defs>
<clipPath id="clip0_36_3440">
<rect width="98" height="39.0628" fill="white" transform="translate(0 0.413086)"/>
</clipPath>
</defs>
</svg>
