<svg width="68" height="118" viewBox="0 0 68 118" fill="none" xmlns="http://www.w3.org/2000/svg">
<g clip-path="url(#clip0_36_3460)">
<path d="M17.9987 33.694C29.2421 36.9698 37.8695 46.0173 40.6054 57.4046L43.0052 67.388L45.4051 57.4046C48.1409 46.0173 56.7684 36.9698 68.0118 33.694C56.7564 30.4182 48.1289 21.3707 45.3931 9.99541L42.9932 0L40.5934 9.99541C37.8695 21.3707 29.2421 30.4182 17.9987 33.694Z" fill="#EAE6DC"/>
</g>
<g clip-path="url(#clip1_36_3460)">
<path d="M0 92.3901C8.36437 94.8395 14.7827 101.605 16.818 110.119L18.6034 117.584L20.3887 110.119C22.424 101.605 28.8424 94.8395 37.2067 92.3901C28.8334 89.9407 22.4151 83.1756 20.3798 74.6699L18.5944 67.196L16.8091 74.6699C14.7827 83.1756 8.36437 89.9407 0 92.3901Z" fill="#EAE6DC"/>
</g>
<defs>
<clipPath id="clip0_36_3460">
<rect width="50.0011" height="67.4" fill="white" transform="translate(17.9987)"/>
</clipPath>
<clipPath id="clip1_36_3460">
<rect width="37.1978" height="50.397" fill="white" transform="translate(0 67.196)"/>
</clipPath>
</defs>
</svg>
